HIERARCHY
ROOT Hips
{
  OFFSET -192.209 103.909 61.9613
  CHANNELS 6 Xposition Yposition Zposition Zrotation Xrotation Yrotation
  JOINT ToSpine
  {
    OFFSET -2.69724 7.43032 -0.144315
    CHANNELS 3 Zrotation Xrotation Yrotation
    JOINT Spine
    {
      OFFSET -0.0310711 10.7595 1.96963
      CHANNELS 3 Zrotation Xrotation Yrotation
      JOINT Spine1
      {
        OFFSET 19.9056 3.91189 0.764692
        CHANNELS 3 Zrotation Xrotation Yrotation
        JOINT Neck
        {
          OFFSET 25.9749 7.03908 -0.130764
          CHANNELS 3 Zrotation Xrotation Yrotation
          JOINT Head
          {
            OFFSET 9.52751 0.295786 -0.907742
            CHANNELS 3 Zrotation Xrotation Yrotation
            End Site
            {
              OFFSET 16.4037 0.713936 2.7358
            }
          }
        }
        JOINT LeftShoulder
        {
          OFFSET 17.7449 4.33886 11.7777
          CHANNELS 3 Zrotation Xrotation Yrotation
          JOINT LeftArm
          {
            OFFSET 0.911315 1.27913 9.80584
            CHANNELS 3 Zrotation Xrotation Yrotation
            JOINT LeftForeArm
            {
              OFFSET 28.6126 1.18197 -3.53199
              CHANNELS 3 Zrotation Xrotation Yrotation
              JOINT LeftHand
              {
                OFFSET 27.5088 0.0218783 0.327423
                CHANNELS 3 Zrotation Xrotation Yrotation
                End Site
                {
                  OFFSET 18.6038 -0.000155887 0.382096
                }
              }
            }
          }
        }
        JOINT RightShoulder
        {
          OFFSET 17.1009 2.89543 -12.2328
          CHANNELS 3 Zrotation Xrotation Yrotation
          JOINT RightArm
          {
            OFFSET 1.4228 0.178766 -10.211
            CHANNELS 3 Zrotation Xrotation Yrotation
            JOINT RightForeArm
            {
              OFFSET 28.733 1.87905 2.64907
              CHANNELS 3 Zrotation Xrotation Yrotation
              JOINT RightHand
              {
                OFFSET 27.4588 0.290562 -0.101845
                CHANNELS 3 Zrotation Xrotation Yrotation
                End Site
                {
                  OFFSET 17.8396 -0.255518 -0.000602873
                }
              }
            }
          }
        }
      }
    }
  }
  JOINT LeftUpLeg
  {
    OFFSET -5.61296 -2.22332 -10.2353
    CHANNELS 3 Zrotation Xrotation Yrotation
    JOINT LeftLeg
    {
      OFFSET 2.56703 -44.7417 -7.93097
      CHANNELS 3 Zrotation Xrotation Yrotation
      JOINT LeftFoot
      {
        OFFSET 3.16933 -46.5642 -3.96578
        CHANNELS 3 Zrotation Xrotation Yrotation
        JOINT LeftToeBase
        {
          OFFSET 0.346054 -6.02161 12.8035
          CHANNELS 3 Zrotation Xrotation Yrotation
          End Site
          {
            OFFSET 0.134235 -1.35082 5.13018
          }
        }
      }
    }
  }
  JOINT RightUpLeg
  {
    OFFSET -5.7928 -1.72406 10.6446
    CHANNELS 3 Zrotation Xrotation Yrotation
    JOINT RightLeg
    {
      OFFSET -2.57161 -44.7178 -7.85259
      CHANNELS 3 Zrotation Xrotation Yrotation
      JOINT RightFoot
      {
        OFFSET -3.10148 -46.5936 -4.03391
        CHANNELS 3 Zrotation Xrotation Yrotation
        JOINT RightToeBase
        {
          OFFSET -0.0828122 -6.13587 12.8035
          CHANNELS 3 Zrotation Xrotation Yrotation
          End Site
          {
            OFFSET -0.131328 -1.35082 5.13018
          }
        }
      }
    }
  }
}
MOTION
Frames:	19
Frame Time:	0.0333333
-117.086 84.133 48.8169 -9.68828 -72.9147 -92.3692 -70.1915 0 88.8779 152.126 58.0719 -55.5113 17.701 20.9548 4.59869 -159.147 21.0865 172.27 -130.763 54.6016 164.008 1.91657 -3.36418 -24.0739 -113.899 39.8448 -54.1321 -13.0149 58.707 14.4084 7.78038 0.24876 5.06102 -0.195786 2.65754 26.6362 -103.891 -20.0538 117.763 0.361955 -12.1502 10.4857 11.1318 0.120439 0.956303 0.741206 17.0349 85.8781 -168.079 61.5641 159.174 7.78425 5.85349 -1.02315 -6.73358 -26.2654 9.07403 -27.2911 -27.2016 77.3245 15.4449 76.1026 -0.385311 -5.28318 -5.51956 0.952208 9.82868 -14.9281 -19.1552 
-123.808 87.3044 47.6241 -9.96629 -70.9672 -92.2019 -70.1915 0 88.8779 155.006 57.7238 -58.1688 17.0147 21.8453 4.6026 -159.475 21.3502 170.79 -129.548 54.4356 163.027 1.82038 -4.45219 -24.8876 -113.616 48.3225 -59.1625 -18.4561 66.1716 18.4442 7.60723 0.0940901 2.95417 -0.3145 4.38215 24.2267 -100.341 -25.1062 124.008 0.226431 -3.94789 14.8755 10.4888 0.242656 2.51059 -2.83591 9.4556 99.3438 -158.941 76.0521 146.753 6.79949 7.11925 -0.837276 -6.48214 -24.9732 7.30714 -26.182 -25.715 70.6352 16.0777 76.4615 -0.586395 -6.19259 -4.77696 1.0042 7.58402 -8.00367 -15.0794 
-129.233 90.12 46.435 -14.216 -67.9694 -98.9488 -70.1915 0 88.8779 155.211 58.5384 -60.8181 15.9793 23.4803 2.94574 -158.754 21.5072 171.251 -130.208 55.1296 164.528 1.81049 -4.83148 -25.7512 -105.94 55.0631 -67.7236 -20.233 63.4788 16.6428 9.65533 0.0571873 2.30422 -0.287597 4.81791 22.4966 -86.7558 -20.9619 134.427 -0.748027 2.17176 19.0399 7.51211 0.270588 3.97443 -7.88816 0.397467 110.756 -26.202 80.6974 12.3537 4.90069 8.39991 -0.457715 -5.51332 -20.3957 6.87327 -19.2843 -26.1663 71.2053 20.5576 79.1263 -5.5969 -5.22576 -3.82945 0.903286 -2.44709 11.6288 -2.55803 
-134.536 91.8654 46.6082 -22.4379 -67.117 -107.059 -70.1915 0 88.8779 155.533 58.8949 -62.1618 16.1902 25.0659 1.10525 -157.346 21.308 172.834 -131.079 55.4311 166.074 1.82505 -4.80943 -25.9796 -99.7168 58.7925 -74.967 -19.2859 57.6799 13.9016 13.4513 0.0233275 1.81578 -0.29673 5.7126 21.1095 -76.9198 -21.0689 140.978 6.1037 -5.77742 26.8829 2.91372 0.0729831 4.17512 -14.7541 -5.22529 111.835 -7.11257 65.2747 -5.31996 4.47615 9.89501 -0.330344 -4.6679 -15.049 8.82537 -17.2636 -22.4793 74.5653 19.4874 78.9271 -6.51346 -5.17632 -1.24003 0.82967 -8.15121 19.9925 3.69167 
-140.661 91.5947 47.5535 -32.1244 -68.0575 -113.963 -70.1915 0 88.8779 155.918 58.7203 -62.4671 16.4408 25.7781 -0.420093 -155.992 20.0939 172.971 -132.254 54.4056 166.9 1.88061 -4.58203 -26.4351 -100.98 59.0113 -77.3571 -17.7721 56.3029 13.4357 16.6088 0.14142 2.58088 -0.415147 6.12552 22.4531 -72.6049 -27.0501 144.282 16.7217 -18.6969 37.4713 -2.08375 -0.143076 6.09985 -20.5516 -8.01113 104.795 -6.04787 62.3392 -5.23941 5.81861 10.7775 -0.576221 -4.43502 -12.9873 9.58176 -20.4739 -15.7417 79.7486 10.7081 74.5313 -5.54739 -5.13121 -0.431981 0.799581 5.32791 7.47746 -18.2028 
-147.343 90.1572 48.1069 -36.2439 -68.8373 -114.144 -70.1915 0 88.8779 153.944 59.1333 -60.9506 15.2032 24.7994 0.538409 -155.988 17.8673 171.178 -133.774 52.174 167.207 1.98381 -4.08718 -26.9816 -102.946 57.205 -78.4276 -17.0994 57.7348 13.9779 18.8979 0.332412 3.65836 -0.544892 5.84232 25.3079 -64.3935 -28.6803 147.874 20.6533 -17.8682 46.4067 -3.09763 -0.197873 5.72256 -22.4248 -6.29827 96.8517 -6.55786 66.0716 0.152976 8.02607 11.1106 -1.07161 -6.76577 -26.8343 9.46682 -24.3204 -10.6691 83.3894 5.43338 67.0593 -4.06825 -5.79648 -3.22526 0.943571 7.18608 -0.0348994 -19.453 
-153.87 88.5824 48.3729 -30.7266 -68.1579 -106.859 -70.1915 0 88.8779 148.371 60.7303 -56.9692 13.2697 22.789 1.91863 -157.45 15.7169 168.933 -135.473 50.176 168.174 2.00116 -4.14818 -27.483 -103.532 54.4158 -82.438 -15.2957 55.7383 13.2934 16.4309 0.291569 3.60682 -0.725021 5.75331 28.6466 -59.1448 -30.6484 147.459 24.8877 -16.0794 55.9819 -3.60224 -0.22717 5.79062 -17.0997 -3.82221 91.9712 -11.4709 73.87 4.28413 10.2276 14.7301 -1.57774 -9.58438 -38.4396 6.17856 -25.477 -8.92369 85.4695 3.53203 58.9584 0.0291367 -5.30399 -3.83326 0.912093 6.26516 0.736692 -17.2009 
-159.798 87.6298 48.9969 -17.0665 -69.1883 -91.6631 -70.1915 0 88.8779 144.068 61.0325 -52.2303 13.4801 20.4418 2.29911 -159.562 15.1272 166.97 -135.616 49.373 168.064 1.79369 -5.40612 -27.235 -103.8 52.4684 -90.7245 -13.611 55.012 13.1772 13.7012 0.0438002 1.99666 -0.689616 4.97662 30.3959 -57.4788 -33.6147 144.312 28.2577 -13.284 64.7932 -1.83335 -0.125295 5.53776 -12.7853 -2.66661 87.6112 -25.4484 81.2884 14.2097 8.97565 10.8163 -1.25575 -8.28104 -33.4579 7.32449 -28.5871 -9.9705 83.7494 4.3474 55.0684 7.24361 -6.27612 -4.82285 1.00302 5.86204 2.29717 -16.9564 
-165.517 87.0986 49.8208 -12.1239 -71.5038 -86.0356 -70.1915 0 88.8779 144.433 61.2101 -52.7593 13.4934 20.9454 1.41782 -157.294 16.0236 163.578 -131.736 49.1284 165.021 1.85021 -5.18801 -27.8092 -101.509 49.8545 -99.9531 -11.568 50.1014 11.4448 12.0152 -0.0311416 1.32683 -0.582121 4.15653 31.1371 -57.0309 -35.8367 139.032 30.0222 -11.3393 69.7832 1.86506 0.0624671 5.46176 -13.4065 -0.764831 83.8009 -45.2755 84.335 33.2069 8.12394 8.39655 -1.07389 -8.38672 -33.875 7.19807 -31.0006 -10.3429 78.7492 5.55559 59.4614 9.26283 -7.15772 -9.98396 1.13697 5.43159 -1.4321 -13.568 
-170.328 86.8522 49.9107 -10.795 -72.7061 -84.1371 -70.1915 0 88.8779 144.834 61.6756 -53.3958 12.6694 21.5269 1.2298 -154.301 15.6679 159.136 -124.918 46.1151 159.97 2.10793 -3.91285 -28.6841 -94.3231 46.8273 -107.581 -7.71869 39.9413 3.51431 16.2369 -0.19385 0.455592 -0.538647 3.72884 31.9774 -57.2202 -35.7888 134.125 31.1446 -11.3936 70.575 7.88444 0.323126 4.75125 -14.57 -0.401838 78.8798 -52.7877 84.9516 41.6863 8.66498 7.56231 -1.17852 -9.18076 -37.5774 7.56319 -30.0612 -9.75602 74.7417 7.33206 64.5106 9.00055 -7.44065 -8.07095 1.12733 6.79569 -6.80798 -14.126 
-174.275 87.6547 50.1008 -10.3881 -73.3014 -84.4835 -70.1915 0 88.8779 143.182 62.7491 -53.0659 13.2224 21.99 0.485477 -153.428 15.2524 156.696 -121.147 43.8931 157.576 2.08862 -3.92818 -28.4075 -89.0924 46.1504 -112.453 1.72022 36.0915 -11.2953 22.0116 -0.67877 -1.83321 -0.458521 3.34289 31.7094 -58.8937 -36.2868 130.292 31.7152 -13.1247 68.2119 8.53165 0.260542 3.38588 -17.2175 -0.634003 75.3907 -36.6963 83.559 26.3927 8.48796 7.09521 -1.14516 -9.71341 -39.6878 7.26179 -30.032 -8.34766 74.1617 7.97286 66.0495 8.2797 -7.25072 -8.41075 1.12016 6.5517 -6.2616 -13.7183 
-177.743 89.1887 50.5405 -7.22023 -74.6491 -80.9391 -70.1915 0 88.8779 143.044 62.4161 -53.1027 12.5312 21.8261 0.81369 -151.91 15.0498 155.616 -118.429 42.5365 156.18 2.1083 -3.76378 -28.2769 -79.7177 44.2004 -121.085 9.16883 36.3796 -18.1924 25.9474 -0.773217 -1.62325 -0.355355 2.85288 31.2516 -61.2998 -37.1671 126.216 28.3349 -14.8262 62.259 5.98397 0.169676 3.22142 -21.4048 -0.0330518 71.4451 -22.6471 80.6023 12.8674 8.08079 5.97701 -1.07352 -9.89629 -40.0646 6.66149 -33.8327 -5.59137 72.2571 6.77676 63.0126 9.30467 -8.05648 -9.00352 1.16086 7.05158 -7.15914 -14.6869 
-180.403 90.6211 50.8823 -1.24245 -75.089 -74.9355 -70.1915 0 88.8779 141.086 62.7008 -50.9839 11.9952 21.1163 1.59262 -150.865 15.335 155.589 -117.054 42.43 155.646 2.2028 -3.31418 -28.6135 -72.9205 41.5785 -126.488 17.481 37.6589 -25.2209 26.2322 -0.956672 -2.37346 -0.234879 2.24477 30.7381 -63.9649 -38.5031 122.622 24.8492 -16.7136 54.8628 5.19629 0.0940855 2.03533 -24.7547 0.125571 68.914 -14.6207 76.6938 5.6655 8.03798 5.06688 -1.06832 -9.86136 -40.0672 6.8852 -36.3598 -4.15435 70.745 6.03257 60.5487 9.91464 -8.11364 -9.32956 1.16313 7.05134 -6.5172 -15.1414 
-182.335 92.2445 51.0911 -1.33425 -75.46 -75.7448 -70.1915 0 88.8779 139.641 63.2217 -49.1894 11.5215 21.0939 0.971059 -150.786 15.5785 156.555 -117.73 43.0696 155.965 2.26157 -3.16667 -29.1463 -69.7742 39.1024 -127.416 22.9452 35.7781 -32.2181 24.5758 -1.00693 -2.87916 -0.192775 2.07027 30.2327 -67.3038 -40.1295 118.913 22.1919 -19.0597 47.1381 6.14177 0.0540027 0.752066 -28.1902 1.71046 69.0395 -9.18901 71.4617 1.87145 8.56613 5.10654 -1.15456 -10.1402 -40.8776 6.39264 -38.0412 -2.74503 70.7119 5.28418 57.8735 10.2293 -7.61534 -8.81769 1.14081 6.48803 -4.47022 -14.7703 
-184.102 94.1072 51.6465 -2.6521 -76.1596 -77.7474 -70.1915 0 88.8779 138.611 63.7344 -47.9844 11.1269 21.2253 0.688308 -151.322 15.7733 158.225 -120.074 44.1692 156.676 2.18781 -3.1627 -27.9739 -68.1057 39.4059 -127.622 23.2846 33.1065 -34.712 22.7783 -1.04932 -3.45418 -0.158713 1.89256 30.0472 -70.7841 -41.1556 115.228 18.5011 -20.1161 39.0267 6.83685 0.0169543 -0.0649747 -31.9641 3.89124 69.9151 -6.5758 66.3525 -0.529108 8.40139 4.62425 -1.1284 -9.7482 -39.9973 7.51634 -41.1629 -0.981233 70.6906 4.39585 53.4951 10.949 -7.72375 -8.66196 1.14479 5.80037 -1.98352 -14.3464 
-185.614 95.7594 52.0758 -4.47634 -76.8004 -80.9868 -70.1915 0 88.8779 137.034 64.7462 -47.049 10.9661 21.5095 1.09134 -152.204 16.1591 160.777 -124.11 46.2438 158.507 2.20889 -2.99812 -27.8882 -65.9526 38.4627 -128.859 21.0535 30.9818 -33.0596 19.7891 -0.962686 -3.73787 -0.115467 1.65167 29.8878 -74.9207 -41.9781 111.011 14.2954 -18.9028 31.6492 6.67206 -0.0176913 -0.709244 -35.1207 5.20794 71.3852 -5.32556 62.0898 -2.53669 7.45859 4.1774 -0.9796 -9.35197 -39.0147 8.7196 -43.7959 0.293245 72.0665 3.73261 49.5706 10.9294 -7.77101 -8.62152 1.14682 5.28827 0.700985 -14.5194 
-186.691 97.2373 52.5389 -6.60069 -77.047 -84.8761 -70.1915 0 88.8779 134.709 65.8 -45.2018 10.7101 21.707 0.985534 -153.072 16.4728 163.693 -129.207 48.4272 160.812 2.23374 -2.80481 -27.7953 -64.4513 38.0339 -129.173 17.7041 27.7447 -30.2995 14.7182 -0.735816 -3.94854 -0.12188 1.72595 29.6023 -78.6224 -42.456 106.567 10.7802 -16.4032 26.0787 6.08029 -0.0316337 -1.0298 -38.1283 6.11106 73.7955 -4.34258 57.4943 -4.32977 7.42912 4.0292 -0.976764 -9.14257 -39.3404 10.6484 -45.9497 0.989541 73.9845 3.21611 45.8838 10.5738 -7.83568 -8.45503 1.14943 4.77834 3.14485 -14.5433 
-187.726 98.5678 53.0575 -11.1538 -76.9834 -90.7586 -70.1915 0 88.8779 131.877 66.9452 -42.6736 10.5227 21.9159 0.683091 -153.699 16.3377 165.902 -133.85 49.6236 162.641 2.27717 -2.5162 -27.7554 -63.2611 37.8509 -128.617 14.5797 24.5999 -27.2854 11.3536 -0.670188 -4.88464 -0.155509 1.96102 29.391 -81.3345 -42.3784 103.239 6.76934 -13.3055 21.0424 5.45261 -0.0243912 -0.950577 -40.8888 7.48911 76.2614 -3.73784 53.1368 -5.94876 7.08255 2.83822 -0.9356 -8.65348 -38.3361 12.8776 -47.8849 2.40068 76.64 2.7203 41.9755 10.0054 -7.80826 -7.77997 1.14543 4.64508 4.89568 -15.1144 
-188.548 99.7181 53.5797 -14.0834 -76.5481 -95.2747 -70.1915 0 88.8779 127.871 68.0222 -39.2757 10.1196 21.8502 0.664522 -154.173 16.2019 168.505 -139.624 51.2351 166.243 2.3917 -1.82885 -27.8241 -61.7336 37.78 -128.17 12.6475 23.3902 -24.527 8.54878 -0.501458 -4.85999 -0.17079 2.12789 28.9303 -85.6038 -42.3007 99.2544 3.59196 -14.4415 17.0571 5.0674 -0.0261216 -1.04169 -43.4562 7.89506 78.3839 -3.12853 48.6648 -6.67426 6.32562 2.77879 -0.826841 -8.14296 -35.5863 13.3226 -49.4032 2.57106 78.3777 2.44801 38.7026 9.7007 -7.43511 -7.70327 1.12492 3.96304 7.29076 -14.6262 
